<?xml version="1.0" standalone="no"?>
<!DOCTYPE svg PUBLIC "-//W3C//DTD SVG 20010904//EN"
 "http://www.w3.org/TR/2001/REC-SVG-20010904/DTD/svg10.dtd">
<svg version="1.0" xmlns="http://www.w3.org/2000/svg"
 width="353.000000pt" height="347.000000pt" viewBox="0 0 353.000000 347.000000"
 preserveAspectRatio="xMidYMid meet">
<metadata>
Created by potrace 1.13, written by Peter Selinger 2001-2015
</metadata>
<g transform="translate(0.000000,347.000000) scale(0.100000,-0.100000)"
fill="#000000" stroke="none">
<path d="M1376 3444 c-235 -37 -453 -144 -624 -308 -177 -170 -289 -362 -342
-590 -24 -104 -41 -298 -33 -381 l6 -65 -187 0 c-129 0 -186 -3 -186 -11 0 -6
6 -37 14 -68 49 -190 51 -237 51 -971 0 -734 -2 -781 -51 -971 -8 -31 -14 -62
-14 -68 0 -8 147 -11 523 -11 l522 0 86 210 c48 116 85 210 83 210 -3 0 -30
-13 -62 -29 -173 -87 -388 -134 -705 -154 l-58 -4 3 796 c3 809 7 900 37 800
20 -68 97 -211 153 -285 186 -246 447 -396 761 -439 l47 -6 0 -550 0 -549 140
0 140 0 0 550 c0 305 4 550 9 550 48 0 253 48 328 77 13 5 14 -49 10 -443 -5
-447 -9 -494 -45 -640 -6 -22 -13 -51 -16 -66 l-6 -28 231 0 232 0 -7 28 c-57
260 -68 388 -64 706 l3 229 69 -104 c180 -271 497 -652 668 -802 l65 -57 187
0 186 0 -136 153 c-223 249 -415 496 -558 719 l-55 87 89 47 c215 113 313 264
313 479 0 177 -43 288 -157 400 -108 107 -236 167 -430 200 -65 11 -163 15
-362 15 -151 0 -274 -3 -274 -6 0 -3 7 -34 16 -67 30 -116 44 -222 51 -373 l6
-151 -69 -33 c-192 -91 -466 -120 -657 -69 -74 19 -194 89 -262 151 -239 219
-340 580 -268 953 34 179 133 359 263 477 88 80 158 122 267 161 84 30 95 31
248 32 136 0 173 -4 248 -23 137 -37 230 -78 355 -160 l22 -14 0 189 0 190
-102 31 c-57 17 -125 36 -153 41 -156 33 -392 39 -549 15z m1144 -1570 c121
-35 234 -119 279 -209 55 -110 51 -261 -10 -375 -68 -128 -210 -216 -382 -236
l-57 -7 0 428 0 427 58 -6 c31 -4 82 -14 112 -22z"/>
</g>
</svg>
